<svg xmlns="http://www.w3.org/2000/svg" viewBox="0 0 512 512">
  <!-- Rounded Square Background -->
  <rect width="480" height="480" x="16" y="16" rx="100" fill="#1a5c3a" />
  
  <!-- Checklist Board Paper -->
  <rect width="280" height="340" x="116" y="100" rx="20" fill="#ffffff" opacity="0.9" />
  
  <!-- Clipboard Clip -->
  <rect width="120" height="40" x="196" y="85" rx="10" fill="#e2e8f0" />
  
  <!-- Checklist Lines -->
  <rect width="160" height="15" x="176" y="160" rx="5" fill="#cbd5e1" />
  <rect width="160" height="15" x="176" y="220" rx="5" fill="#cbd5e1" />
  <rect width="160" height="15" x="176" y="280" rx="5" fill="#cbd5e1" />
  <rect width="160" height="15" x="176" y="340" rx="5" fill="#cbd5e1" />
  
  <!-- Checkboxes -->
  <rect width="30" height="30" x="136" y="152" rx="5" stroke="#cbd5e1" stroke-width="4" fill="none" />
  <rect width="30" height="30" x="136" y="212" rx="5" stroke="#cbd5e1" stroke-width="4" fill="none" />
  <rect width="30" height="30" x="136" y="272" rx="5" stroke="#cbd5e1" stroke-width="4" fill="none" />
  <rect width="30" height="30" x="136" y="332" rx="5" stroke="#cbd5e1" stroke-width="4" fill="none" />
  
  <!-- Vibrant Yellow Checkmark -->
  <path d="M140 285 l8 8 l20 -20" stroke="#facc15" stroke-width="12" fill="none" stroke-linecap="round" stroke-linejoin="round" />
  <path d="M140 225 l8 8 l20 -20" stroke="#facc15" stroke-width="12" fill="none" stroke-linecap="round" stroke-linejoin="round" />
</svg>